<?xml version="1.0" standalone="no"?>
<!DOCTYPE svg PUBLIC "-//W3C//DTD SVG 20010904//EN"
 "http://www.w3.org/TR/2001/REC-SVG-20010904/DTD/svg10.dtd">
<svg version="1.0" xmlns="http://www.w3.org/2000/svg"
 width="192.000000pt" height="262.000000pt" viewBox="0 0 192.000000 262.000000"
 preserveAspectRatio="xMidYMid meet">

<g transform="translate(0.000000,262.000000) scale(0.100000,-0.100000)"
fill="#000000" stroke="none">
<path d="M919 2606 c-107 -29 -198 -111 -225 -202 -13 -46 -13 -57 0 -87 18
-45 48 -61 102 -54 l44 5 0 -47 c0 -25 -3 -76 -7 -113 -5 -57 -9 -68 -24 -68
-10 0 -29 -5 -43 -11 -19 -9 -29 -8 -47 5 -31 21 -77 20 -113 -3 -26 -17 -32
-18 -50 -5 -45 31 -142 8 -120 -28 5 -7 7 -25 6 -39 -4 -36 24 -62 60 -57 15
3 28 1 28 -4 0 -4 9 -17 20 -28 21 -21 84 -28 95 -10 8 13 25 13 25 1 0 -5 -9
-12 -19 -16 -28 -8 -33 -33 -12 -51 17 -15 17 -19 2 -70 -16 -53 -17 -54 -67
-69 -28 -8 -68 -28 -89 -45 l-39 -31 -23 48 c-13 26 -27 51 -32 56 -25 25
-191 -111 -258 -212 -160 -241 -174 -646 -33 -948 49 -104 88 -161 169 -247
107 -112 243 -193 408 -243 76 -22 106 -26 218 -26 122 0 186 8 313 42 31 9
42 17 42 31 0 19 -22 21 -60 7 -74 -28 -141 -39 -255 -44 -117 -4 -140 -2
-230 21 -125 32 -238 88 -342 171 -168 132 -270 325 -307 576 -23 151 -22 167
9 175 14 4 28 4 30 2 3 -2 9 -56 15 -119 5 -63 18 -144 28 -181 24 -84 90
-201 149 -261 l45 -46 -23 -32 -23 -32 32 23 31 23 48 -40 c135 -113 314 -208
438 -233 33 -7 63 -17 67 -24 6 -8 8 -7 8 2 0 8 21 12 73 12 39 0 92 5 117 11
39 9 254 103 333 145 15 8 32 12 37 9 6 -3 10 1 10 9 0 9 4 16 10 16 5 0 35
33 67 73 32 39 84 100 116 135 70 75 93 123 107 223 23 159 36 189 68 157 9
-9 12 -9 12 1 0 7 -9 15 -20 18 -23 6 -23 4 -9 62 7 34 6 71 -6 150 -9 58 -21
136 -27 173 -7 49 -20 84 -49 130 -21 35 -55 95 -75 133 -20 39 -46 80 -58 93
-20 23 -21 24 -2 37 25 19 46 7 89 -52 91 -125 147 -289 168 -495 35 -334 -34
-527 -280 -782 -78 -80 -186 -166 -209 -166 -16 0 -72 -31 -72 -41 0 -5 11
-11 24 -15 48 -12 148 59 292 207 240 249 317 451 285 749 -29 268 -104 476
-212 592 -52 55 -77 52 -130 -16 l-42 -54 -45 35 c-25 19 -57 37 -73 40 -27 5
-49 44 -29 51 5 2 20 12 32 22 20 16 21 22 11 39 -7 11 -13 23 -13 26 0 11 32
4 55 -11 19 -12 38 -14 90 -9 70 8 105 30 105 67 0 22 -34 58 -55 58 -8 0 -17
11 -21 25 -9 38 -50 65 -98 65 -29 0 -47 6 -59 20 -13 15 -29 20 -71 20 l-55
0 -3 101 c-2 56 -1 104 2 109 3 4 23 10 45 14 94 17 178 73 190 127 12 52 -23
92 -101 115 -33 9 -72 31 -100 55 -49 42 -61 45 -126 28 -39 -10 -48 -9 -92
15 -55 29 -119 33 -197 12z m204 -40 c43 -25 45 -26 93 -11 27 8 53 15 57 15
5 0 26 -18 48 -40 28 -28 51 -42 80 -46 57 -9 103 -43 107 -78 5 -37 -45 -89
-107 -113 -61 -24 -197 -23 -264 1 -27 10 -51 15 -54 12 -10 -10 85 -47 137
-53 l50 -6 0 -42 c0 -23 3 -75 6 -116 l6 -74 -40 -18 c-26 -11 -44 -28 -52
-47 -12 -29 -30 -41 -30 -20 0 6 -11 22 -25 35 -31 32 -78 33 -99 3 -15 -21
-16 -21 -35 -4 -10 9 -32 21 -47 25 l-28 7 49 34 c27 18 44 35 37 38 -24 8
-103 -41 -129 -79 -26 -40 -40 -51 -29 -24 3 8 1 27 -5 42 -7 18 -6 43 1 77 6
28 11 89 12 134 0 45 5 85 9 88 5 3 9 10 9 15 0 5 -13 0 -28 -11 -15 -11 -44
-23 -64 -26 -116 -19 -95 162 28 247 104 72 221 85 307 35z m-593 -546 c8 -5
11 -10 5 -10 -5 0 -17 5 -25 10 -8 5 -10 10 -5 10 6 0 17 -5 25 -10z m158 3
c-10 -2 -28 -2 -40 0 -13 2 -5 4 17 4 22 1 32 -1 23 -4z m82 -23 c-8 -5 -19
-10 -25 -10 -5 0 -3 5 5 10 8 5 20 10 25 10 6 0 3 -5 -5 -10z m641 -7 c12 -16
12 -17 -1 -6 -8 6 -26 13 -40 16 l-25 4 26 2 c15 0 33 -7 40 -16z m-283 -41
c17 -22 15 -77 -4 -93 -13 -11 -14 -9 -9 14 4 16 2 33 -4 41 -13 15 -58 18
-67 5 -3 -5 1 -6 9 -3 8 3 18 0 22 -6 10 -16 0 -23 -25 -15 -29 9 -24 55 9 71
27 14 50 9 69 -14z m-152 10 c23 -15 34 -50 24 -76 -5 -14 -12 -26 -16 -26 -3
0 -4 6 -1 13 8 21 -10 54 -33 60 -26 7 -75 -36 -64 -56 5 -9 4 -9 -5 -1 -14
13 1 63 26 82 19 13 52 16 69 4z m522 1 c-10 -2 -26 -2 -35 0 -10 3 -2 5 17 5
19 0 27 -2 18 -5z m47 -21 c-3 -3 -11 0 -18 7 -9 10 -8 11 6 5 10 -3 15 -9 12
-12z m-683 -42 c-3 -18 3 -40 13 -56 16 -26 16 -27 -14 -58 -59 -61 -48 -131
25 -162 27 -12 35 -20 32 -37 -5 -33 -29 -31 -83 5 -31 21 -57 49 -72 78 -12
25 -23 38 -23 29 0 -37 84 -133 128 -145 28 -8 28 -20 0 -35 -22 -12 -22 -12
-3 -19 25 -9 103 6 133 26 13 9 31 28 39 43 l16 27 23 -23 c12 -12 34 -25 49
-29 36 -9 102 12 115 36 10 18 7 20 -21 20 -30 0 -69 23 -69 41 0 4 15 22 34
41 62 62 61 128 -3 156 -35 16 -37 19 -27 43 9 22 15 25 34 18 12 -5 22 -15
22 -23 0 -20 35 -38 63 -34 27 4 72 -42 54 -54 -7 -4 7 -8 30 -8 48 0 63 -15
39 -38 -13 -13 -21 -14 -46 -5 l-30 11 17 -31 c25 -49 28 -143 6 -201 -15 -41
-24 -51 -51 -58 -25 -7 -32 -14 -32 -33 0 -25 -14 -33 -25 -15 -9 15 -42 12
-59 -6 -9 -8 -16 -30 -16 -48 0 -28 -7 -36 -54 -65 -88 -53 -190 -74 -264 -55
-19 6 -22 11 -16 39 4 23 1 37 -11 48 -15 16 -15 17 3 17 11 0 26 7 33 16 11
14 10 16 -11 14 -47 -4 -59 0 -95 31 -45 40 -45 30 0 -20 l35 -39 -29 -4 c-26
-4 -30 -1 -33 21 -2 17 -13 31 -30 39 -33 16 -42 52 -42 172 -1 116 10 174 40
209 l25 30 -36 -6 c-28 -4 -35 -2 -35 11 0 8 10 18 23 20 12 3 35 8 51 11 16
3 41 19 55 34 30 32 60 50 82 51 12 0 14 -7 11 -30z m70 -5 c-5 -28 -20 -33
-29 -9 -3 9 0 20 8 25 22 14 27 11 21 -16z m187 -67 c47 -3 67 -9 77 -23 18
-25 18 -34 -6 -73 -28 -46 -110 -82 -203 -89 -80 -6 -107 2 -132 41 -30 46 24
116 102 132 18 4 36 16 44 30 12 24 13 24 33 5 15 -13 41 -20 85 -23z m-719
-203 c0 -7 -18 -25 -41 -41 -151 -104 -259 -323 -259 -524 0 -57 0 -58 -31
-62 l-31 -5 7 71 c18 191 76 346 172 457 51 59 105 109 138 127 22 11 45 0 45
-23z m220 -42 c0 -50 10 -136 22 -182 1 -7 -3 -16 -10 -18 -8 -3 -10 1 -5 13
9 23 -22 44 -56 38 -23 -4 -31 3 -69 61 -50 76 -49 80 31 120 79 39 87 36 87
-32z m853 11 c15 -13 27 -29 27 -35 0 -6 -16 -31 -37 -55 -25 -31 -39 -42 -47
-34 -5 5 -21 10 -34 10 -18 0 -23 4 -18 15 3 9 11 44 17 79 12 63 12 64 38 55
15 -5 39 -21 54 -35z m129 -1 c9 -10 32 -49 52 -88 20 -38 54 -98 75 -133 22
-35 42 -80 45 -100 43 -304 44 -370 3 -390 -18 -9 -19 -11 -4 -11 10 -1 16 -5
13 -9 -3 -5 -14 -62 -26 -126 -24 -134 -43 -179 -109 -250 -26 -28 -73 -82
-105 -121 -67 -80 -82 -91 -101 -75 -11 9 -12 7 -8 -8 5 -20 -21 -36 -104 -66
-21 -8 -56 -22 -78 -32 -22 -10 -47 -17 -57 -15 -9 1 -19 -3 -23 -8 -4 -7 1
-8 12 -4 10 3 15 3 11 -1 -3 -4 -17 -9 -30 -11 -49 -8 -60 -12 -68 -26 -14
-22 -170 -25 -266 -5 -233 48 -536 278 -635 482 -57 118 -71 197 -73 404 -1
144 2 186 17 235 30 95 95 210 152 268 59 61 115 103 115 88 0 -5 -4 -13 -10
-16 -5 -3 -10 -15 -10 -26 0 -13 -11 -25 -33 -34 -40 -17 -53 -31 -62 -68 -4
-15 -22 -39 -40 -53 -30 -23 -34 -32 -40 -92 -4 -37 -11 -84 -15 -105 -5 -21
-4 -52 0 -68 8 -25 5 -31 -20 -46 -43 -25 -56 -98 -21 -120 14 -9 21 -28 25
-75 10 -122 14 -153 25 -212 12 -69 19 -78 75 -105 38 -17 45 -25 55 -68 7
-26 18 -58 26 -69 11 -17 11 -24 2 -35 -10 -11 -9 -11 4 -1 9 7 24 10 33 6 9
-3 40 -9 69 -13 49 -6 53 -8 72 -49 28 -56 47 -74 84 -77 17 -1 40 -10 50 -19
27 -25 76 -36 113 -25 26 7 36 5 54 -12 14 -13 32 -19 50 -17 26 3 30 -1 35
-32 l6 -35 2 35 c1 26 4 31 13 22 18 -18 52 -14 81 9 21 15 34 19 62 13 23 -4
49 -1 75 10 22 9 55 16 72 16 23 0 41 10 69 40 33 34 44 40 79 40 37 0 43 3
53 30 8 21 18 30 34 30 14 0 23 6 23 15 0 8 7 15 15 15 8 0 28 12 45 28 25 21
31 36 33 69 1 40 3 43 41 55 49 16 79 56 81 105 0 21 8 52 18 70 20 37 21 67
6 111 -9 27 -8 36 10 61 26 36 26 45 1 86 -20 32 -20 32 0 50 26 23 26 60 0
82 -15 13 -20 30 -20 68 0 32 -7 62 -20 83 -11 18 -20 39 -20 46 0 8 -13 26
-30 39 -16 14 -30 33 -30 42 0 10 -16 23 -40 32 -22 9 -40 19 -40 23 0 4 -11
19 -25 34 l-25 27 37 49 c21 28 40 50 44 50 3 0 13 -8 21 -17z m-1123 -99 l53
-76 -35 -37 c-19 -20 -37 -44 -41 -55 -8 -22 10 -46 33 -46 14 0 17 -7 13 -30
-5 -34 20 -70 47 -70 9 0 33 11 53 25 33 22 36 23 31 5 -7 -28 16 -53 44 -47
20 4 22 1 17 -20 -9 -34 12 -53 61 -53 34 0 44 -4 52 -22 6 -13 26 -44 46 -69
l35 -47 -126 5 c-70 2 -184 11 -254 19 -70 7 -160 13 -200 12 l-73 -2 65 -3
c36 -2 121 -10 190 -18 69 -8 187 -17 263 -21 l138 -6 -48 -57 -48 -56 60 52
60 52 80 -6 c44 -4 74 -8 68 -10 -20 -7 -15 -64 7 -101 37 -60 103 -85 164
-62 24 9 26 7 26 -19 0 -24 5 -29 30 -33 27 -4 30 -2 30 21 0 41 16 58 39 44
16 -10 22 -9 37 8 9 10 27 19 39 19 26 0 52 -25 36 -34 -18 -12 -30 -75 -20
-108 11 -42 54 -85 97 -99 32 -11 34 -13 29 -46 -8 -47 -33 -83 -57 -83 -16 0
-20 7 -20 33 -1 90 -94 189 -167 175 -13 -2 -19 -14 -21 -39 -3 -35 -1 -37 33
-43 47 -9 70 -45 70 -112 0 -29 4 -56 8 -60 9 -10 9 -44 0 -44 -5 1 -33 40
-65 88 -68 105 -214 288 -322 403 -90 97 -87 78 5 -26 122 -139 207 -244 270
-334 35 -51 71 -102 79 -113 14 -20 13 -21 -13 -14 -23 5 -33 0 -71 -39 -36
-36 -51 -45 -78 -44 -28 0 -30 2 -12 9 52 21 94 107 80 164 -16 64 -97 117
-148 97 -32 -12 -63 -51 -79 -98 -23 -70 22 -157 89 -169 l35 -7 -34 -14 c-20
-9 -49 -12 -70 -9 -27 4 -43 1 -62 -14 -29 -23 -60 -26 -76 -6 -9 10 -11 102
-9 332 2 246 0 324 -10 339 -11 17 -12 13 -6 -28 l6 -47 -27 10 c-70 27 -141
-52 -106 -118 8 -15 3 -17 -49 -14 -67 4 -102 -13 -126 -61 -13 -25 -14 -31
-2 -38 25 -16 44 -9 55 21 13 34 46 41 62 13 8 -14 12 -15 25 -4 37 31 75 -27
56 -85 -11 -31 -13 -33 -61 -32 -57 0 -91 -18 -120 -65 -20 -32 -22 -87 -4
-129 5 -13 2 -15 -14 -11 -27 7 -46 31 -61 76 -14 44 -38 57 -106 57 -24 0
-44 4 -44 9 0 17 78 103 198 219 64 63 105 106 91 98 -25 -16 -26 -16 -21 13
3 21 8 27 21 24 9 -2 25 5 35 16 17 18 17 21 1 45 -11 17 -15 36 -12 55 5 24
2 30 -16 35 -24 6 -47 -16 -47 -44 0 -15 -7 -14 -49 8 -40 19 -58 23 -90 17
-74 -12 -121 -71 -121 -151 0 -74 61 -130 136 -123 l40 4 -90 -103 c-50 -56
-95 -101 -101 -99 -5 2 -17 30 -25 62 -14 55 -18 60 -64 84 -28 15 -53 36 -58
49 -6 19 -5 22 10 18 70 -21 95 -15 85 22 -3 13 -13 22 -24 22 -26 0 -55 46
-40 63 8 10 7 22 -1 45 -10 27 -9 34 7 51 10 12 29 21 42 21 25 0 31 22 13 50
-8 13 -14 12 -47 -5 -21 -11 -48 -36 -61 -55 l-25 -35 6 57 c5 50 3 58 -19 79
-37 34 -30 83 13 100 19 7 29 4 50 -15 48 -44 129 -42 181 6 18 17 26 19 29
10 11 -31 57 -72 91 -83 50 -14 111 6 132 43 13 25 13 29 -2 45 -16 15 -19 15
-35 1 -37 -33 -90 -23 -116 22 -13 22 -24 29 -37 25 -15 -5 -18 1 -17 45 1 57
-18 90 -73 128 -43 29 -88 28 -134 -3 -20 -14 -38 -25 -40 -25 -2 0 1 21 7 46
7 31 19 52 38 65 15 11 33 36 40 57 13 40 34 61 61 62 10 0 21 14 28 35 6 19
15 35 19 35 4 0 31 -34 60 -76z m451 37 c0 -5 -7 -12 -16 -15 -14 -5 -15 -4
-4 9 14 17 20 19 20 6z m591 -76 c14 -23 32 -38 52 -43 22 -6 33 -16 37 -32 3
-14 16 -30 28 -36 39 -19 37 -24 -10 -18 -106 15 -181 -84 -133 -176 17 -33
60 -66 99 -76 l28 -7 -21 -20 c-25 -25 -84 -26 -130 -2 -24 12 -31 22 -31 44
0 63 -74 98 -120 56 -34 -31 -32 -115 3 -137 19 -12 82 -9 95 4 9 9 12 8 12
-5 0 -49 117 -65 196 -27 43 21 44 22 38 61 -5 30 -3 39 8 39 8 0 23 9 33 20
14 15 21 17 32 9 18 -16 16 -37 -7 -66 -20 -26 -20 -26 1 -62 l21 -37 -21 -41
c-17 -32 -20 -46 -11 -67 13 -35 13 -72 -1 -98 -11 -20 -11 -19 -29 9 -24 41
-69 57 -135 50 -44 -4 -56 -2 -70 13 -24 27 -80 43 -127 37 -36 -5 -38 -4 -32
16 4 12 8 24 10 26 5 5 327 -20 339 -27 6 -3 6 0 0 6 -6 7 -80 17 -170 24
l-160 13 -3 32 c-9 89 -152 124 -233 56 -37 -32 -37 -40 4 -53 25 -8 14 -9
-52 -5 -46 3 -90 9 -98 13 -9 6 12 33 77 97 88 88 110 106 110 88 0 -19 42
-53 66 -53 33 0 52 40 37 80 -10 26 -9 29 11 32 13 2 25 14 31 34 8 25 13 29
26 21 41 -26 79 30 63 92 l-10 38 26 -10 c46 -17 63 -3 57 46 -4 30 -1 47 10
59 23 25 31 23 54 -17z m-104 -7 c12 -10 12 -13 -1 -20 -9 -5 -16 -16 -16 -23
0 -8 -3 -15 -7 -15 -15 0 -53 45 -53 63 0 17 5 19 32 13 17 -3 37 -11 45 -18z
m-85 -39 c11 -14 22 -46 25 -70 6 -39 4 -42 -9 -31 -13 10 -18 9 -28 -3 -11
-13 -15 -13 -21 -3 -13 21 -31 117 -24 128 11 17 36 8 57 -21z m-722 -8 c0
-22 -34 -67 -62 -82 -29 -16 -66 -21 -73 -9 -9 14 24 58 64 86 43 29 71 31 71
5z m840 -1 c0 -5 -5 -12 -11 -16 -14 -8 -33 11 -25 25 7 11 36 4 36 -9z m-212
-27 c17 -25 42 -93 42 -117 0 -5 -8 -2 -17 5 -15 11 -16 11 -5 -1 19 -21 15
-52 -5 -48 -12 2 -18 13 -18 31 1 15 -3 27 -7 27 -4 0 -8 -8 -8 -17 -1 -28
-28 25 -35 69 -13 74 17 102 53 51z m-540 -21 c3 -17 -11 -38 -53 -80 -56 -56
-56 -56 -68 -32 -7 13 -19 25 -27 27 -10 3 -9 1 3 -7 19 -12 23 -45 7 -55 -20
-12 -42 17 -35 44 8 33 37 64 94 102 52 34 75 34 79 1z m107 -53 c7 -22 -10
-47 -58 -81 -27 -20 -29 -20 -42 -2 -13 18 -14 18 -8 -3 4 -16 0 -25 -12 -29
-21 -8 -40 10 -29 28 5 7 9 20 11 28 1 8 18 30 37 48 43 38 91 44 101 11z
m545 -33 c-15 -15 -34 9 -26 31 7 17 8 17 22 -1 9 -13 11 -23 4 -30z m323 24
c30 -24 49 -79 40 -121 -18 -90 -156 -92 -198 -3 -14 31 -15 43 -6 75 6 21 21
45 34 54 31 22 99 19 130 -5z m-495 -12 c2 -11 -4 -14 -27 -10 -25 3 -31 0
-36 -20 -3 -13 -1 -37 5 -53 11 -28 8 -32 -92 -132 -56 -57 -106 -103 -109
-103 -8 0 -99 118 -99 128 0 4 14 15 30 24 30 17 42 59 20 73 -22 13 -7 20 48
22 64 2 149 30 202 67 38 27 53 28 58 4z m4 -40 c34 -28 67 -101 37 -83 -6 4
-5 -2 3 -14 10 -16 10 -23 0 -33 -9 -9 -16 -7 -33 8 -24 21 -58 89 -59 117 0
20 29 23 52 5z m-810 -35 c24 -25 10 -43 -39 -50 -32 -4 -45 -1 -68 20 l-29
24 29 16 c36 18 83 14 107 -10z m469 -13 c28 -16 24 -47 -11 -65 -37 -19 -71
-20 -64 -1 3 8 1 17 -5 21 -7 3 -8 0 -5 -9 7 -19 -23 -33 -37 -19 -14 14 52
83 80 83 12 0 31 -5 42 -10z m557 -56 c15 -10 22 -25 22 -47 0 -38 -7 -50 -37
-65 -61 -33 -103 63 -47 107 32 25 33 25 62 5z m-861 -78 c10 -18 62 -27 85
-15 11 6 18 4 22 -7 4 -10 1 -14 -6 -12 -7 3 -19 -1 -26 -9 -8 -8 -24 -11 -40
-7 -32 8 -74 43 -66 55 8 13 22 11 31 -5z m1020 -52 c-3 -3 -12 -4 -19 -1 -8
3 -5 6 6 6 11 1 17 -2 13 -5z m-147 -191 c0 -14 -2 -15 -9 -5 -6 10 -10 7 -15
-13 -6 -22 -9 -25 -21 -15 -8 7 -21 10 -29 7 -18 -7 -14 21 5 34 25 16 69 11
69 -8z m-496 -29 c19 -18 19 -23 16 -324 -2 -245 -3 -250 -46 -250 -33 0 -37
28 -9 64 31 41 34 107 6 152 -16 27 -17 34 -5 55 18 32 17 87 -1 123 -18 34
-18 36 -3 36 14 0 58 40 58 53 0 5 -14 -3 -31 -17 -38 -32 -44 -32 -74 -1 -48
47 -20 125 44 125 16 0 37 -7 45 -16z m393 -19 c0 -8 -4 -15 -9 -15 -10 0 -11
14 -1 23 9 10 10 9 10 -8z m-5 -40 c0 -5 -5 -11 -11 -13 -6 -2 -11 4 -11 13 0
9 5 15 11 13 6 -2 11 -8 11 -13z m333 5 c3 -5 1 -10 -4 -10 -6 0 -11 5 -11 10
0 6 2 10 4 10 3 0 8 -4 11 -10z m-30 -10 c3 -6 -1 -7 -9 -4 -18 7 -21 14 -7
14 6 0 13 -4 16 -10z m-815 -60 c11 -7 8 -11 -15 -20 -24 -9 -31 -8 -40 4 -10
13 -15 13 -39 1 -14 -8 -24 -10 -20 -4 15 25 86 37 114 19z m40 -30 c23 -12
44 -70 30 -84 -7 -7 -10 -2 -10 15 0 14 -5 30 -12 37 -7 7 -8 12 -2 12 5 1 -2
7 -16 15 -28 16 -19 21 10 5z m604 -69 c3 -5 -2 -15 -12 -22 -15 -12 -16 -12
-5 2 7 9 10 19 6 22 -3 4 -4 7 0 7 3 0 8 -4 11 -9z m-204 -155 c0 -2 -8 -10
-17 -17 -16 -13 -17 -12 -4 4 13 16 21 21 21 13z m-461 -47 c30 -11 59 -45 47
-56 -9 -9 -82 15 -96 32 -12 14 -6 35 9 35 4 0 22 -5 40 -11z"/>
<path d="M1121 2010 c18 -22 36 -40 40 -40 14 0 -13 60 -31 70 -37 20 -40 9
-9 -30z"/>
<path d="M706 1779 c-14 -17 -26 -37 -26 -46 0 -11 5 -10 18 6 16 21 17 19 14
-64 -8 -199 49 -298 161 -281 47 7 219 102 217 121 0 12 -84 6 -88 -6 -2 -5
-26 -21 -53 -35 -45 -22 -52 -23 -77 -10 -80 42 -136 145 -134 249 1 66 6 77
33 77 11 0 17 5 14 10 -13 20 -53 10 -79 -21z m90 -311 c31 -44 29 -65 -5 -42
-23 17 -61 86 -61 114 0 16 17 -2 66 -72z"/>
<path d="M1060 609 c-51 -21 -87 -66 -101 -127 -6 -29 -4 -34 21 -47 31 -16
40 -12 40 20 0 34 35 72 86 91 39 15 45 21 42 43 -2 21 -9 26 -33 28 -16 1
-41 -2 -55 -8z m34 -22 c-8 -23 -92 -88 -99 -77 -3 6 1 13 10 16 9 4 14 12 11
19 -8 21 28 46 76 54 4 0 5 -5 2 -12z m22 -14 c-10 -10 -19 5 -10 18 6 11 8
11 12 0 2 -7 1 -15 -2 -18z"/>
<path d="M517 1331 c-4 -17 -3 -21 5 -13 5 5 8 16 6 23 -3 8 -7 3 -11 -10z"/>
<path d="M1551 1264 c-29 -37 -26 -70 8 -105 36 -35 64 -37 96 -4 32 31 34 86
5 115 -30 30 -83 27 -109 -6z m93 1 c39 -40 23 -107 -27 -113 -39 -5 -67 23
-67 64 0 52 59 83 94 49z"/>
<path d="M525 1040 c10 -11 20 -20 23 -20 3 0 -3 9 -13 20 -10 11 -20 20 -23
20 -3 0 3 -9 13 -20z"/>
<path d="M830 754 c-20 -53 28 -85 65 -44 15 17 16 24 7 45 -16 35 -59 34 -72
-1z m58 -10 c3 -23 -21 -49 -38 -39 -11 7 -14 48 -3 59 13 13 38 1 41 -20z"/>
<path d="M1270 83 c0 -11 3 -14 8 -7 4 6 14 14 22 17 10 4 8 6 -7 6 -16 1 -23
-5 -23 -16z"/>
</g>
</svg>
